<?xml version="1.0" standalone="no"?>
<!DOCTYPE svg PUBLIC "-//W3C//DTD SVG 20010904//EN"
 "http://www.w3.org/TR/2001/REC-SVG-20010904/DTD/svg10.dtd">
<svg version="1.0" xmlns="http://www.w3.org/2000/svg"
 width="512.000000pt" height="512.000000pt" viewBox="0 0 512.000000 512.000000"
 preserveAspectRatio="xMidYMid meet">
<metadata>
Created by potrace 1.14, written by Peter Selinger 2001-2017
</metadata>
<g transform="translate(0.000000,512.000000) scale(0.100000,-0.100000)"
fill="#000000" stroke="none">
<path d="M2660 4328 c-3 -3 -41 -8 -85 -12 -81 -6 -208 -23 -235 -31 -8 -2
-33 -7 -55 -11 -175 -27 -502 -142 -704 -247 -301 -157 -474 -305 -552 -474
-55 -119 -57 -241 -4 -349 14 -28 36 -63 50 -78 13 -14 24 -30 24 -33 0 -4 5
-9 12 -12 7 -2 9 1 5 8 -4 6 -2 11 4 11 7 0 10 7 6 15 -3 8 -1 14 5 12 5 -1
17 11 27 28 17 29 23 38 50 70 7 8 11 15 8 15 -3 0 5 11 17 24 42 45 67 78 67
87 0 6 5 7 10 4 6 -3 13 1 16 10 9 23 95 103 214 198 8 7 31 23 50 37 19 13
37 27 40 31 3 3 15 9 26 13 12 4 34 18 48 31 15 13 29 25 31 25 3 0 10 0 16 0
5 0 7 5 4 10 -4 6 5 10 20 10 14 0 24 4 21 9 -3 4 13 14 34 21 22 7 40 17 40
22 0 5 5 6 10 3 6 -3 10 -1 10 4 0 6 9 11 20 11 11 0 20 5 20 11 0 5 4 8 9 4
5 -3 15 1 23 8 7 8 18 12 25 10 6 -2 15 1 19 8 4 7 3 9 -3 6 -5 -3 -10 0 -10
8 0 13 3 12 18 -1 17 -15 19 -15 25 0 3 9 10 13 15 10 5 -3 9 1 9 8 0 9 3 9
10 -2 6 -10 10 -11 10 -2 0 6 9 12 19 12 11 0 23 5 26 10 4 6 11 8 16 4 5 -3
16 0 24 6 8 7 15 10 15 6 0 -4 17 2 39 13 21 11 41 17 45 14 3 -3 16 2 28 13
12 10 18 13 14 7 -8 -15 10 -18 19 -3 3 5 13 6 22 3 9 -4 14 -2 11 3 -4 5 9 9
28 8 19 -1 32 2 29 7 -3 4 8 6 25 4 16 -2 30 0 30 4 0 5 12 8 28 8 63 0 178
17 184 27 6 8 8 8 8 0 0 -7 14 -11 30 -10 17 0 30 4 30 9 0 4 6 5 13 0 19 -11
147 -10 147 2 0 6 4 5 8 -2 8 -12 78 -25 149 -27 23 -1 41 -5 40 -10 -2 -11
63 -27 77 -19 5 4 6 1 2 -5 -6 -11 0 -14 20 -11 4 0 11 -5 15 -13 7 -10 9 -10
9 2 0 10 5 7 16 -8 8 -12 24 -22 35 -22 11 0 17 -4 14 -10 -3 -5 0 -10 8 -10
7 0 23 -9 35 -20 12 -11 25 -20 29 -21 19 -1 74 -86 89 -137 29 -100 4 -275
-58 -397 -92 -184 -257 -315 -532 -425 -73 -29 -76 -29 -143 -16 -238 44 -411
-73 -478 -324 -19 -72 -19 -77 6 -83 16 -4 20 -11 16 -26 -3 -12 -1 -19 4 -15
5 3 9 0 9 -7 0 -8 5 -7 17 2 11 10 14 10 9 2 -5 -9 1 -13 21 -14 61 -2 108 3
111 12 3 6 10 5 18 -2 11 -9 14 -9 14 0 0 7 4 10 9 7 5 -4 20 -2 34 3 22 9 25
6 47 -47 63 -153 212 -455 298 -602 52 -89 188 -299 201 -310 3 -3 24 -27 46
-55 75 -94 236 -243 256 -237 5 1 9 -3 9 -10 0 -6 3 -9 6 -5 4 3 13 -1 21 -9
8 -8 19 -12 24 -9 5 4 9 3 9 -2 0 -9 57 -30 100 -38 14 -2 35 -6 48 -9 13 -3
22 0 22 7 0 8 3 8 9 -2 5 -8 11 -9 15 -3 3 6 19 9 34 7 15 -1 33 2 40 7 6 6
12 8 12 5 0 -3 14 -1 30 5 27 9 29 12 18 27 -12 14 -11 15 5 2 15 -12 22 -12
45 0 15 8 30 18 34 24 4 5 8 6 8 2 0 -4 6 -2 14 5 8 7 11 17 8 22 -3 5 0 6 7
2 7 -5 28 4 49 20 52 40 172 161 172 174 0 6 4 8 10 5 5 -3 12 6 16 20 3 14
10 25 15 25 5 0 9 6 9 13 0 7 6 19 13 25 12 13 13 17 16 48 0 9 6 12 13 8 8
-5 9 -2 5 9 -3 9 -3 18 1 21 4 2 8 33 10 69 2 51 0 66 -13 70 -8 4 -15 15 -15
26 0 57 -11 54 -89 -26 -235 -242 -408 -249 -625 -26 -133 138 -259 336 -412
651 -53 108 -103 209 -111 225 -8 15 -11 27 -6 27 4 0 1 5 -7 10 -13 8 -12 10
3 10 10 0 15 4 12 10 -3 5 0 7 8 4 8 -3 29 8 48 23 19 15 27 19 19 9 -14 -18
-14 -19 8 -7 12 7 20 16 17 21 -3 6 1 7 10 4 8 -4 21 -1 29 5 7 6 16 8 19 4 4
-3 7 -1 7 6 0 7 5 9 10 6 6 -3 10 -2 10 3 0 6 11 13 25 16 14 4 25 11 25 17 0
6 -5 7 -12 3 -7 -5 -8 -3 -3 5 5 9 11 9 17 3 11 -11 170 67 162 80 -3 4 2 5
10 2 9 -3 16 -1 16 5 0 6 6 11 13 11 15 1 110 61 146 92 14 13 29 24 33 23 18
-1 208 180 208 199 0 6 9 17 20 24 11 7 20 19 20 26 0 8 5 16 11 18 6 2 12 15
12 30 1 14 5 24 8 22 7 -4 33 47 30 60 -1 5 2 12 8 15 5 4 13 20 16 36 9 46
10 49 16 60 3 6 5 22 4 38 0 15 4 27 10 27 5 0 3 5 -5 10 -9 6 -10 10 -3 10
14 0 15 198 1 216 -5 7 -8 16 -7 20 4 26 -2 45 -13 38 -10 -6 -10 -4 0 8 9 11
10 18 2 23 -5 3 -10 15 -10 26 0 10 -5 19 -12 19 -6 0 -9 3 -5 6 13 13 -78
160 -132 215 -162 162 -418 236 -846 246 -126 3 -232 3 -235 1z m150 -308 c0
-5 -2 -10 -4 -10 -3 0 -8 5 -11 10 -3 6 -1 10 4 10 6 0 11 -4 11 -10z m160 6
c0 -3 -4 -8 -10 -11 -5 -3 -10 -1 -10 4 0 6 5 11 10 11 6 0 10 -2 10 -4z
m-760 -86 c0 -5 -2 -10 -4 -10 -3 0 -8 5 -11 10 -3 6 -1 10 4 10 6 0 11 -4 11
-10z m-143 -35 c0 -8 -4 -12 -9 -9 -5 3 -6 10 -3 15 9 13 12 11 12 -6z m-357
-205 c0 -5 -2 -10 -4 -10 -3 0 -8 5 -11 10 -3 6 -1 10 4 10 6 0 11 -4 11 -10z
m-360 -276 c0 -8 -19 -13 -24 -6 -3 5 1 9 9 9 8 0 15 -2 15 -3z m2494 -122 c3
-5 -1 -9 -9 -9 -8 0 -12 4 -9 9 3 4 7 8 9 8 2 0 6 -4 9 -8z m-34 -62 c0 -5 -2
-10 -4 -10 -3 0 -8 5 -11 10 -3 6 -1 10 4 10 6 0 11 -4 11 -10z m-2664 -56 c1
-9 0 -13 -4 -10 -3 4 -7 14 -8 22 -1 9 0 13 4 10 3 -4 7 -14 8 -22z m2604 -58
c0 -2 -7 -7 -16 -10 -8 -3 -12 -2 -9 4 6 10 25 14 25 6z m-170 -146 c8 -5 11
-10 5 -10 -5 0 -17 5 -25 10 -8 5 -10 10 -5 10 6 0 17 -5 25 -10z m-317 -185
c4 -8 3 -16 -1 -19 -4 -3 -9 4 -9 15 -2 23 3 25 10 4z m847 -1349 c0 -2 -7 -7
-16 -10 -8 -3 -12 -2 -9 4 6 10 25 14 25 6z m-429 -339 c-10 -9 -11 -8 -5 6 3
10 9 15 12 12 3 -3 0 -11 -7 -18z m-81 -3 c0 -8 -19 -13 -24 -6 -3 5 1 9 9 9
8 0 15 -2 15 -3z"/>
<path d="M2053 3695 c-53 -12 -272 -82 -281 -90 -2 -1 7 -22 19 -45 34 -65 32
-150 -6 -335 -8 -38 -17 -81 -19 -95 -2 -14 -14 -72 -26 -130 -12 -58 -23
-116 -26 -130 -2 -14 -11 -59 -19 -100 -9 -41 -17 -84 -19 -95 -2 -11 -40
-202 -84 -425 -45 -223 -83 -416 -85 -430 -8 -42 -157 -783 -163 -810 -18 -79
-17 -121 5 -150 11 -16 21 -32 21 -36 0 -10 50 -54 61 -54 6 0 7 6 3 13 -6 8
-3 8 9 -1 21 -17 67 -23 67 -8 0 6 5 4 10 -4 5 -8 10 -10 10 -5 0 6 15 10 33
10 17 0 37 2 42 5 12 6 19 7 46 9 11 0 17 5 14 11 -3 5 0 7 9 4 8 -3 24 0 36
6 12 6 34 14 48 16 15 3 32 10 39 16 7 6 13 7 13 2 0 -5 4 -4 8 1 4 6 16 15
27 21 11 7 19 20 17 30 -2 11 -4 27 -6 36 -1 10 -5 20 -7 23 -3 2 -3 26 0 52
4 27 6 69 6 95 0 25 3 44 8 41 6 -4 12 29 8 51 -1 4 4 14 10 22 9 11 8 14 -2
14 -9 0 -10 3 -4 8 6 4 11 12 12 18 1 6 5 24 8 40 5 28 15 86 19 111 1 7 5 16
9 19 4 4 7 12 7 18 0 6 -5 4 -10 -4 -6 -9 -10 -10 -10 -3 0 6 4 14 9 17 5 3
14 36 21 73 6 37 17 74 23 82 9 12 9 13 0 7 -7 -4 -13 -3 -13 3 0 5 5 13 10
16 6 4 8 10 6 14 -3 4 -1 13 4 21 6 10 3 21 -8 35 -16 19 -16 19 2 5 18 -13
19 -13 14 0 -3 9 0 24 8 35 10 13 11 22 3 32 -7 7 -7 13 -2 13 5 0 10 6 10 13
0 6 4 25 8 41 6 23 5 27 -6 21 -8 -5 -5 2 6 14 11 13 19 26 17 30 -2 3 0 29 4
56 4 28 7 53 6 58 -1 4 2 7 6 7 12 0 12 43 0 57 -8 11 -7 12 7 6 14 -5 17 -3
12 10 -3 8 -1 18 6 21 9 3 9 5 -1 5 -10 1 -9 7 2 30 9 16 13 31 10 33 -2 3 0
17 5 32 8 19 7 26 -2 26 -8 0 -8 3 2 9 8 5 14 28 15 54 0 25 4 43 9 40 7 -4
12 32 9 75 0 12 4 22 9 22 5 0 9 6 8 13 -2 6 3 32 10 56 7 23 10 45 7 48 -3 3
1 18 10 34 8 16 11 29 6 29 -5 0 -9 7 -9 15 0 8 4 12 9 9 4 -3 9 6 9 20 2 38
3 44 11 51 4 4 3 17 -3 28 -8 14 -8 18 0 13 6 -4 12 0 12 8 2 28 6 56 9 59 1
1 3 9 5 17 1 8 4 22 6 30 3 9 -2 14 -11 12 -11 -3 -9 3 6 20 11 13 19 33 18
46 0 12 2 22 6 22 4 0 6 12 5 28 -1 15 3 30 9 34 7 5 6 8 -4 8 -10 0 -11 3 -4
8 7 4 14 18 15 32 2 14 9 28 14 32 6 5 6 8 -2 8 -11 0 -7 22 19 89 6 17 5 27
-4 32 -8 6 -9 9 -2 9 11 0 15 15 28 87 2 12 7 27 11 32 3 6 0 11 -7 11 -8 0
-9 3 -3 8 6 4 10 14 10 22 -1 8 3 21 8 28 6 8 5 12 -4 12 -11 0 -11 2 0 9 13
8 13 12 0 27 -8 10 -9 15 -2 11 6 -4 14 -3 17 2 4 5 2 12 -4 16 -6 4 -8 10 -5
14 2 5 -9 36 -25 70 -48 99 -101 118 -247 86z m-428 -2874 c3 -5 2 -12 -3 -15
-5 -3 -9 1 -9 9 0 17 3 19 12 6z"/>
</g>
</svg>
